<svg width="42" height="32" viewBox="0 0 42 32" fill="none" xmlns="http://www.w3.org/2000/svg">
<path d="M15.7075 2.03609C16.5159 1.45561 17.6045 1.45562 18.4129 2.0361L32.0595 11.835L17.0602 19.6554L2.06096 11.835L15.7075 2.03609ZM32.1264 11.883C32.1263 11.883 32.1262 11.8829 32.1262 11.8829L32.1264 11.883Z" fill="#464646" stroke="#464646" stroke-linejoin="round"/>
<path d="M4.85061 2.79834C4.8621 1.52566 5.89705 0.5 7.16978 0.5H26.7811C28.062 0.5 29.1004 1.53837 29.1004 2.81926V12.7043C29.1004 13.54 28.6508 14.311 27.9236 14.7226L19.1568 19.6847C18.8323 19.8684 18.4726 19.9697 18.1078 19.976C17.5624 19.9853 16.7806 19.9894 16.077 19.9594C15.3885 19.93 15.045 19.8605 14.8949 19.8176L14.7575 20.2983L14.8949 19.8176C14.8314 19.7994 14.7723 19.7665 14.6476 19.6971C14.6358 19.6905 14.6235 19.6837 14.6105 19.6765L5.95286 14.8656C5.21013 14.4528 4.75255 13.667 4.76022 12.8174L4.85061 2.79834Z" fill="#F0EDE6" stroke="#464646"/>
<path d="M15.4954 19.0409C16.4731 19.5636 17.6473 19.5636 18.625 19.0409L31.9245 11.9315L31.6897 11.4923L31.9245 11.9315C32.19 11.7895 32.511 11.9819 32.511 12.2831V26.9592C32.511 27.4275 32.1314 27.8071 31.6631 27.8071H2.45733C1.98902 27.8071 1.60938 27.4275 1.60938 26.9592V12.2831C1.60938 11.9819 1.9304 11.7895 2.19595 11.9315L15.4954 19.0409Z" fill="#E3DED7" stroke="#464646" stroke-linejoin="round"/>
<path d="M16.0436 16.9772C16.6126 16.5588 17.3874 16.5588 17.9564 16.9772L31.497 26.9335C31.8072 27.1616 31.6459 27.6533 31.2609 27.6533H17H2.73912C2.35411 27.6533 2.19278 27.1616 2.50297 26.9335L16.0436 16.9772Z" fill="#E3DED7" stroke="#464646"/>
<path fill-rule="evenodd" clip-rule="evenodd" d="M34 16C29.584 16 26 19.584 26 24C26 28.416 29.584 32 34 32C38.416 32 42 28.416 42 24C42 19.584 38.416 16 34 16Z" fill="#EDEAE5"/>
<path fill-rule="evenodd" clip-rule="evenodd" d="M34 16C29.584 16 26 19.584 26 24C26 28.416 29.584 32 34 32C38.416 32 42 28.416 42 24C42 19.584 38.416 16 34 16ZM32.4 28L28.4 24L29.528 22.872L32.4 25.736L38.472 19.664L39.6 20.8L32.4 28Z" fill="#00B67D"/>
</svg>
